<?xml version="1.0" standalone="no"?>
<!DOCTYPE svg PUBLIC "-//W3C//DTD SVG 20010904//EN"
 "http://www.w3.org/TR/2001/REC-SVG-20010904/DTD/svg10.dtd">
<svg version="1.0" xmlns="http://www.w3.org/2000/svg"
 width="100.000000pt" height="100.000000pt" viewBox="0 0 100.000000 100.000000"
 preserveAspectRatio="xMidYMid meet">

<g transform="translate(0.000000,100.000000) scale(0.100000,-0.100000)"
fill="#000000" stroke="none">
<path d="M715 724 l-110 -57 -193 27 -192 27 -40 -23 c-22 -13 -40 -26 -40
-29 0 -11 80 -37 86 -28 3 5 -7 14 -23 20 l-28 11 27 14 c24 13 52 10 266 -21
274 -40 252 -38 252 -26 0 5 -19 12 -42 16 l-42 8 79 40 c44 22 91 41 105 42
14 2 33 6 43 10 28 12 19 -11 -10 -24 -21 -10 -28 -9 -34 1 -6 9 -9 9 -9 1 0
-23 20 -24 60 -3 28 14 46 18 57 11 15 -8 13 -12 -10 -33 -14 -13 -115 -72
-224 -130 l-198 -106 -155 -31 c-188 -37 -202 -39 -207 -25 -2 6 61 38 144 73
l148 62 44 -16 c51 -18 51 -18 51 -7 0 12 -139 66 -148 58 -3 -4 0 -11 8 -16
10 -6 -2 -16 -46 -35 -90 -40 -103 -41 -172 -6 -52 26 -65 29 -91 20 -17 -6
-31 -14 -31 -17 0 -4 19 -24 42 -44 33 -29 40 -40 29 -47 -11 -7 -10 -13 4
-35 10 -14 20 -26 24 -26 4 0 90 18 192 39 l184 39 190 102 c281 152 316 196
169 215 -47 7 -56 4 -159 -51z m-556 -213 l53 -28 -30 -12 c-29 -12 -34 -11
-72 19 -31 25 -38 35 -28 41 17 11 15 12 77 -20z"/>
<path d="M263 633 c-28 -14 -44 -33 -28 -33 12 0 75 35 75 42 0 11 -10 9 -47
-9z"/>
<path d="M323 613 c-28 -14 -44 -33 -28 -33 12 0 75 35 75 42 0 11 -10 9 -47
-9z"/>
<path d="M628 596 c-58 -35 -58 -41 0 -12 28 14 52 29 52 31 0 9 -14 4 -52
-19z"/>
<path d="M550 550 c-9 -6 -10 -10 -3 -10 6 0 15 5 18 10 8 12 4 12 -15 0z"/>
<path d="M20 230 c0 -5 9 -10 20 -10 11 0 20 5 20 10 0 6 -9 10 -20 10 -11 0
-20 -4 -20 -10z"/>
<path d="M80 230 c0 -5 16 -10 35 -10 19 0 35 5 35 10 0 6 -16 10 -35 10 -19
0 -35 -4 -35 -10z"/>
<path d="M200 230 c0 -6 137 -10 390 -10 253 0 390 4 390 10 0 6 -137 10 -390
10 -253 0 -390 -4 -390 -10z"/>
</g>
</svg>
