<?xml version="1.0" standalone="no"?>
<!DOCTYPE svg PUBLIC "-//W3C//DTD SVG 20010904//EN"
 "http://www.w3.org/TR/2001/REC-SVG-20010904/DTD/svg10.dtd">
<svg version="1.0" xmlns="http://www.w3.org/2000/svg"
 width="980.000000pt" height="980.000000pt" viewBox="0 0 980.000000 980.000000"
 preserveAspectRatio="xMidYMid meet">
<metadata>
Created by potrace 1.15, written by Peter Selinger 2001-2017
</metadata>
<g transform="translate(0.000000,980.000000) scale(0.100000,-0.100000)"
fill="#000000" stroke="none">
<path d="M1946 9787 c-18 -13 -15 -22 44 -168 80 -199 170 -411 455 -1079 370
-866 405 -956 405 -1049 l0 -58 -467 -6 c-256 -4 -594 -7 -751 -7 -156 0 -337
-5 -402 -11 l-118 -11 -234 189 c-288 235 -387 309 -458 342 -51 24 -66 26
-186 26 -116 0 -134 -2 -153 -19 -12 -11 -21 -29 -21 -41 0 -27 77 -147 226
-350 117 -159 174 -241 174 -248 0 -6 -63 -32 -185 -74 -127 -44 -208 -87
-245 -130 -39 -44 -38 -62 8 -105 50 -49 128 -90 247 -131 112 -39 155 -57
155 -66 0 -3 -22 -37 -48 -76 -221 -324 -323 -479 -328 -502 -15 -59 32 -84
159 -84 133 0 179 13 273 76 72 49 299 227 525 413 l76 62 294 -10 c162 -5
556 -10 877 -10 l582 0 0 -58 c0 -99 -36 -193 -439 -1135 -258 -604 -459
-1083 -475 -1133 -12 -39 13 -46 151 -42 120 3 131 5 160 28 54 43 354 450
1207 1643 l499 697 536 0 c669 1 973 11 1096 38 234 52 401 144 465 255 71
124 10 237 -181 337 -102 53 -236 97 -339 110 -78 10 -971 29 -1396 30 l-182
0 -470 658 c-514 719 -1058 1470 -1158 1598 -37 49 -77 88 -97 98 -45 21 -253
23 -281 3z"/>
<path d="M5201 5501 c-9 -6 -11 -18 -7 -35 12 -50 260 -581 650 -1394 l245
-512 -6 -194 -6 -194 -201 -6 c-111 -3 -399 -8 -641 -11 -594 -8 -1049 -23
-1153 -40 -80 -13 -87 -13 -112 5 -31 22 -161 163 -357 386 -216 246 -256 275
-380 282 -67 4 -74 2 -99 -23 -46 -46 -35 -80 145 -443 89 -179 160 -326 158
-328 -1 -2 -56 -24 -121 -49 -256 -99 -321 -173 -225 -260 38 -34 69 -51 252
-133 37 -17 67 -36 67 -42 0 -6 -55 -127 -121 -268 -181 -384 -204 -449 -165
-481 23 -19 108 -24 183 -11 71 11 71 12 150 93 44 45 175 191 291 325 117
133 217 242 223 242 6 0 63 -7 127 -15 159 -20 610 -34 1322 -40 327 -4 609
-8 626 -11 l31 -4 6 -194 6 -194 -258 -538 c-439 -917 -641 -1352 -641 -1384
0 -27 48 -34 180 -28 77 4 119 11 146 24 27 13 82 71 177 184 208 248 673 822
1225 1510 321 401 500 617 515 621 13 4 423 10 911 14 l889 7 96 33 c200 68
339 141 401 212 98 111 90 216 -25 321 -94 86 -300 177 -455 201 -86 14 -685
30 -1190 32 -190 1 -413 4 -496 8 l-152 6 -549 685 c-770 961 -1252 1550
-1314 1607 -13 11 -42 26 -64 32 -48 13 -264 14 -284 2z"/>
</g>
</svg>
