<svg version="1.0" xmlns="http://www.w3.org/2000/svg" width="300" height="300" viewBox="0 0 225 225"><path d="M148.2 66l-16.7 17.1L96 73.6l-35.5-9.4-6 6c-3.3 3.3-5.5 6.2-5 6.4.6.3 13.7 7.1 29.2 15.2l28.2 14.8-12.2 12.1-12.2 12.1-9-1.3-9-1.3-4.2 4.1c-2.4 2.3-4.3 4.4-4.3 4.8 0 .4 4.5 3.1 10.1 6.1l10.1 5.3 4.4 8.6c6.8 13.1 6.2 12.7 11.2 7.6l4.4-4.5-1.2-9.3-1.1-9.3 11.9-11.9 11.9-11.9 6.5 12.3c3.6 6.8 10.5 20 15.3 29.3l8.8 16.8 5.8-5.8 5.8-5.9-9-34.9-9.1-34.9 16.6-16.6c9.1-9.1 17-17.9 17.5-19.4.8-2.1.7-3.5-.4-5.6-1.6-3.2-3.3-4.1-7.7-4.1-2.5 0-5.4 2.5-19.6 17z" fill="#fff"/></svg>