<svg version="1.0" xmlns="http://www.w3.org/2000/svg" width="133.333" height="133.333" viewBox="0 0 100 100"><path d="M71.5 27.6l-11 5.7-19.3-2.7L22 27.9l-4 2.3c-2.2 1.3-4 2.6-4 2.9 0 1.1 8 3.7 8.6 2.8.3-.5-.7-1.4-2.3-2l-2.8-1.1 2.7-1.4c2.4-1.3 5.2-1 26.6 2.1 27.4 4 25.2 3.8 25.2 2.6 0-.5-1.9-1.2-4.2-1.6l-4.2-.8 7.9-4c4.4-2.2 9.1-4.1 10.5-4.2 1.4-.2 3.3-.6 4.3-1 2.8-1.2 1.9 1.1-1 2.4-2.1 1-2.8.9-3.4-.1-.6-.9-.9-.9-.9-.1 0 2.3 2 2.4 6 .3 2.8-1.4 4.6-1.8 5.7-1.1 1.5.8 1.3 1.2-1 3.3-1.4 1.3-11.5 7.2-22.4 13L49.5 52.8 34 55.9c-18.8 3.7-20.2 3.9-20.7 2.5-.2-.6 6.1-3.8 14.4-7.3l14.8-6.2 4.4 1.6c5.1 1.8 5.1 1.8 5.1.7 0-1.2-13.9-6.6-14.8-5.8-.3.4 0 1.1.8 1.6 1 .6-.2 1.6-4.6 3.5-9 4-10.3 4.1-17.2.6-5.2-2.6-6.5-2.9-9.1-2-1.7.6-3.1 1.4-3.1 1.7 0 .4 1.9 2.4 4.2 4.4 3.3 2.9 4 4 2.9 4.7-1.1.7-1 1.3.4 3.5 1 1.4 2 2.6 2.4 2.6.4 0 9-1.8 19.2-3.9l18.4-3.9 19-10.2c28.1-15.2 31.6-19.6 16.9-21.5-4.7-.7-5.6-.4-15.9 5.1zM15.9 48.9l5.3 2.8-3 1.2C15.3 54.1 14.8 54 11 51c-3.1-2.5-3.8-3.5-2.8-4.1 1.7-1.1 1.5-1.2 7.7 2z"/><path d="M26.3 36.7c-2.8 1.4-4.4 3.3-2.8 3.3 1.2 0 7.5-3.5 7.5-4.2 0-1.1-1-.9-4.7.9zm6 2c-2.8 1.4-4.4 3.3-2.8 3.3 1.2 0 7.5-3.5 7.5-4.2 0-1.1-1-.9-4.7.9zm30.5 1.7c-5.8 3.5-5.8 4.1 0 1.2 2.8-1.4 5.2-2.9 5.2-3.1 0-.9-1.4-.4-5.2 1.9zM55 45c-.9.6-1 1-.3 1 .6 0 1.5-.5 1.8-1 .8-1.2.4-1.2-1.5 0zM2 77c0 .5.9 1 2 1s2-.5 2-1c0-.6-.9-1-2-1s-2 .4-2 1zm6 0c0 .5 1.6 1 3.5 1s3.5-.5 3.5-1c0-.6-1.6-1-3.5-1S8 76.4 8 77zm12 0c0 .6 13.7 1 39 1s39-.4 39-1-13.7-1-39-1-39 .4-39 1z"/></svg>