<svg version="1.0" xmlns="http://www.w3.org/2000/svg" width="1306.667" height="1306.667" viewBox="0 0 980 980"><path d="M194.6 1.3c-1.8 1.3-1.5 2.2 4.4 16.8 8 19.9 17 41.1 45.5 107.9 37 86.6 40.5 95.6 40.5 104.9v5.8l-46.7.6c-25.6.4-59.4.7-75.1.7-15.6 0-33.7.5-40.2 1.1l-11.8 1.1-23.4-18.9C59 197.8 49.1 190.4 42 187.1c-5.1-2.4-6.6-2.6-18.6-2.6-11.6 0-13.4.2-15.3 1.9-1.2 1.1-2.1 2.9-2.1 4.1 0 2.7 7.7 14.7 22.6 35C40.3 241.4 46 249.6 46 250.3c0 .6-6.3 3.2-18.5 7.4-12.7 4.4-20.8 8.7-24.5 13-3.9 4.4-3.8 6.2.8 10.5 5 4.9 12.8 9 24.7 13.1 11.2 3.9 15.5 5.7 15.5 6.6 0 .3-2.2 3.7-4.8 7.6-22.1 32.4-32.3 47.9-32.8 50.2-1.5 5.9 3.2 8.4 15.9 8.4 13.3 0 17.9-1.3 27.3-7.6 7.2-4.9 29.9-22.7 52.5-41.3l7.6-6.2 29.4 1c16.2.5 55.6 1 87.7 1H285v5.8c0 9.9-3.6 19.3-43.9 113.5-25.8 60.4-45.9 108.3-47.5 113.3-1.2 3.9 1.3 4.6 15.1 4.2 12-.3 13.1-.5 16-2.8 5.4-4.3 35.4-45 120.7-164.3l49.9-69.7h53.6c66.9-.1 97.3-1.1 109.6-3.8 23.4-5.2 40.1-14.4 46.5-25.5 7.1-12.4 1-23.7-18.1-33.7-10.2-5.3-23.6-9.7-33.9-11-7.8-1-97.1-2.9-139.6-3h-18.2l-47-65.8c-51.4-71.9-105.8-147-115.8-159.8-3.7-4.9-7.7-8.8-9.7-9.8-4.5-2.1-25.3-2.3-28.1-.3zm325.5 428.6c-.9.6-1.1 1.8-.7 3.5 1.2 5 26 58.1 65 139.4l24.5 51.2-.6 19.4-.6 19.4-20.1.6c-11.1.3-39.9.8-64.1 1.1-59.4.8-104.9 2.3-115.3 4-8 1.3-8.7 1.3-11.2-.5-3.1-2.2-16.1-16.3-35.7-38.6-21.6-24.6-25.6-27.5-38-28.2-6.7-.4-7.4-.2-9.9 2.3-4.6 4.6-3.5 8 14.5 44.3 8.9 17.9 16 32.6 15.8 32.8-.1.2-5.6 2.4-12.1 4.9-25.6 9.9-32.1 17.3-22.5 26 3.8 3.4 6.9 5.1 25.2 13.3 3.7 1.7 6.7 3.6 6.7 4.2 0 .6-5.5 12.7-12.1 26.8-18.1 38.4-20.4 44.9-16.5 48.1 2.3 1.9 10.8 2.4 18.3 1.1 7.1-1.1 7.1-1.2 15-9.3 4.4-4.5 17.5-19.1 29.1-32.5 11.7-13.3 21.7-24.2 22.3-24.2.6 0 6.3.7 12.7 1.5 15.9 2 61 3.4 132.2 4 32.7.4 60.9.8 62.6 1.1l3.1.4.6 19.4.6 19.4-25.8 53.8C539.2 930.3 519 973.8 519 977c0 2.7 4.8 3.4 18 2.8 7.7-.4 11.9-1.1 14.6-2.4 2.7-1.3 8.2-7.1 17.7-18.4 20.8-24.8 67.3-82.2 122.5-151 32.1-40.1 50-61.7 51.5-62.1 1.3-.4 42.3-1 91.1-1.4l88.9-.7 9.6-3.3c20-6.8 33.9-14.1 40.1-21.2 9.8-11.1 9-21.6-2.5-32.1-9.4-8.6-30-17.7-45.5-20.1-8.6-1.4-68.5-3-119-3.2-19-.1-41.3-.4-49.6-.8l-15.2-.6-54.9-68.5c-77-96.1-125.2-155-131.4-160.7-1.3-1.1-4.2-2.6-6.4-3.2-4.8-1.3-26.4-1.4-28.4-.2z"/></svg>